<svg xmlns="http://www.w3.org/2000/svg" xmlns:xlink="http://www.w3.org/1999/xlink" width="500" zoomAndPan="magnify" viewBox="0 0 375 374.999991" height="500" preserveAspectRatio="xMidYMid meet" version="1.2"><defs/><g id="56e5ca0727"><path style=" stroke:none;fill-rule:nonzero;fill:#3bb371;fill-opacity:1;" d="M -24.902344 269.664062 L -24.902344 197.210938 C -24.902344 190.542969 -19.496094 185.136719 -12.824219 185.136719 L 68.433594 185.136719 C 69.925781 185.136719 71.132812 183.925781 71.132812 182.4375 C 71.132812 180.945312 69.925781 179.738281 68.433594 179.738281 L 3.324219 179.738281 C -3.347656 179.738281 -8.753906 174.332031 -8.753906 167.664062 L -8.753906 95.210938 C -8.753906 88.542969 -3.347656 83.136719 3.324219 83.136719 L 371.664062 83.136719 C 374.867188 83.136719 377.9375 84.40625 380.203125 86.671875 C 382.46875 88.9375 383.738281 92.007812 383.738281 95.210938 L 383.738281 167.664062 C 383.738281 170.863281 382.46875 173.9375 380.203125 176.199219 C 377.9375 178.464844 374.867188 179.738281 371.664062 179.738281 L 306.5625 179.738281 C 305.074219 179.738281 303.863281 180.945312 303.863281 182.4375 C 303.863281 183.925781 305.074219 185.136719 306.5625 185.136719 L 387.8125 185.136719 C 391.015625 185.136719 394.085938 186.40625 396.351562 188.671875 C 398.617188 190.9375 399.886719 194.007812 399.886719 197.210938 L 399.886719 269.664062 C 399.886719 272.863281 398.617188 275.9375 396.351562 278.199219 C 394.085938 280.464844 391.015625 281.738281 387.8125 281.738281 L -12.824219 281.738281 C -19.496094 281.738281 -24.902344 276.332031 -24.902344 269.664062 Z M -24.902344 269.664062 "/><g style="fill:#e0feca;fill-opacity:1;"><g transform="translate(16.91403, 150.186655)"><path style="stroke:none" d="M 36.8125 0 L 24.6875 0 L 14.1875 -16.75 L 14.1875 0 L 3.8125 0 L 3.8125 -38.0625 L 14.1875 -38.0625 L 14.1875 -22.1875 L 23.15625 -38.0625 L 35.296875 -38.0625 L 24.3125 -19.625 Z M 36.8125 0 "/></g></g><g style="fill:#e0feca;fill-opacity:1;"><g transform="translate(53.3996, 150.186655)"><path style="stroke:none" d="M 26.921875 -38.0625 L 37.359375 -38.0625 L 37.359375 -15.546875 C 37.359375 -11.921875 36.59375 -8.894531 35.0625 -6.46875 C 33.539062 -4.039062 31.507812 -2.21875 28.96875 -1 C 26.4375 0.207031 23.628906 0.8125 20.546875 0.8125 C 17.503906 0.8125 14.710938 0.207031 12.171875 -1 C 9.640625 -2.21875 7.613281 -4.039062 6.09375 -6.46875 C 4.570312 -8.894531 3.8125 -11.921875 3.8125 -15.546875 L 3.8125 -38.0625 L 14.1875 -38.0625 C 14.1875 -38.0625 14.1875 -37.613281 14.1875 -36.71875 C 14.1875 -35.832031 14.1875 -34.65625 14.1875 -33.1875 C 14.1875 -31.726562 14.1875 -30.117188 14.1875 -28.359375 C 14.1875 -26.597656 14.1875 -24.851562 14.1875 -23.125 C 14.1875 -21.40625 14.1875 -19.847656 14.1875 -18.453125 C 14.1875 -17.054688 14.1875 -15.976562 14.1875 -15.21875 C 14.1875 -12.9375 14.800781 -11.210938 16.03125 -10.046875 C 17.269531 -8.890625 18.773438 -8.3125 20.546875 -8.3125 C 22.328125 -8.3125 23.832031 -8.890625 25.0625 -10.046875 C 26.300781 -11.210938 26.921875 -12.9375 26.921875 -15.21875 C 26.921875 -15.976562 26.921875 -17.054688 26.921875 -18.453125 C 26.921875 -19.847656 26.921875 -21.40625 26.921875 -23.125 C 26.921875 -24.851562 26.921875 -26.597656 26.921875 -28.359375 C 26.921875 -30.117188 26.921875 -31.726562 26.921875 -33.1875 C 26.921875 -34.65625 26.921875 -35.832031 26.921875 -36.71875 C 26.921875 -37.613281 26.921875 -38.0625 26.921875 -38.0625 Z M 19.25 -46.546875 C 19.25 -45.316406 18.8125 -44.253906 17.9375 -43.359375 C 17.070312 -42.472656 16.003906 -42.03125 14.734375 -42.03125 C 13.503906 -42.03125 12.441406 -42.472656 11.546875 -43.359375 C 10.660156 -44.253906 10.21875 -45.316406 10.21875 -46.546875 C 10.21875 -47.816406 10.660156 -48.882812 11.546875 -49.75 C 12.441406 -50.625 13.503906 -51.0625 14.734375 -51.0625 C 16.003906 -51.0625 17.070312 -50.625 17.9375 -49.75 C 18.8125 -48.882812 19.25 -47.816406 19.25 -46.546875 Z M 30.9375 -46.546875 C 30.9375 -45.316406 30.492188 -44.253906 29.609375 -43.359375 C 28.722656 -42.472656 27.660156 -42.03125 26.421875 -42.03125 C 25.191406 -42.03125 24.128906 -42.472656 23.234375 -43.359375 C 22.347656 -44.253906 21.90625 -45.316406 21.90625 -46.546875 C 21.90625 -47.816406 22.347656 -48.882812 23.234375 -49.75 C 24.128906 -50.625 25.191406 -51.0625 26.421875 -51.0625 C 27.660156 -51.0625 28.722656 -50.625 29.609375 -49.75 C 30.492188 -48.882812 30.9375 -47.816406 30.9375 -46.546875 Z M 30.9375 -46.546875 "/></g></g><g style="fill:#e0feca;fill-opacity:1;"><g transform="translate(93.691418, 150.186655)"><path style="stroke:none" d="M 33.765625 -38.0625 L 33.765625 -29.25 L 22.625 -29.25 L 22.625 0 L 12.234375 0 L 12.234375 -29.25 L 1.09375 -29.25 L 1.09375 -38.0625 Z M 33.765625 -38.0625 "/></g></g><g style="fill:#e0feca;fill-opacity:1;"><g transform="translate(127.675733, 150.186655)"><path style="stroke:none" d="M 26.921875 -38.0625 L 37.359375 -38.0625 L 37.359375 -15.546875 C 37.359375 -11.921875 36.59375 -8.894531 35.0625 -6.46875 C 33.539062 -4.039062 31.507812 -2.21875 28.96875 -1 C 26.4375 0.207031 23.628906 0.8125 20.546875 0.8125 C 17.503906 0.8125 14.710938 0.207031 12.171875 -1 C 9.640625 -2.21875 7.613281 -4.039062 6.09375 -6.46875 C 4.570312 -8.894531 3.8125 -11.921875 3.8125 -15.546875 L 3.8125 -38.0625 L 14.1875 -38.0625 C 14.1875 -38.0625 14.1875 -37.613281 14.1875 -36.71875 C 14.1875 -35.832031 14.1875 -34.65625 14.1875 -33.1875 C 14.1875 -31.726562 14.1875 -30.117188 14.1875 -28.359375 C 14.1875 -26.597656 14.1875 -24.851562 14.1875 -23.125 C 14.1875 -21.40625 14.1875 -19.847656 14.1875 -18.453125 C 14.1875 -17.054688 14.1875 -15.976562 14.1875 -15.21875 C 14.1875 -12.9375 14.800781 -11.210938 16.03125 -10.046875 C 17.269531 -8.890625 18.773438 -8.3125 20.546875 -8.3125 C 22.328125 -8.3125 23.832031 -8.890625 25.0625 -10.046875 C 26.300781 -11.210938 26.921875 -12.9375 26.921875 -15.21875 C 26.921875 -15.976562 26.921875 -17.054688 26.921875 -18.453125 C 26.921875 -19.847656 26.921875 -21.40625 26.921875 -23.125 C 26.921875 -24.851562 26.921875 -26.597656 26.921875 -28.359375 C 26.921875 -30.117188 26.921875 -31.726562 26.921875 -33.1875 C 26.921875 -34.65625 26.921875 -35.832031 26.921875 -36.71875 C 26.921875 -37.613281 26.921875 -38.0625 26.921875 -38.0625 Z M 19.25 -46.546875 C 19.25 -45.316406 18.8125 -44.253906 17.9375 -43.359375 C 17.070312 -42.472656 16.003906 -42.03125 14.734375 -42.03125 C 13.503906 -42.03125 12.441406 -42.472656 11.546875 -43.359375 C 10.660156 -44.253906 10.21875 -45.316406 10.21875 -46.546875 C 10.21875 -47.816406 10.660156 -48.882812 11.546875 -49.75 C 12.441406 -50.625 13.503906 -51.0625 14.734375 -51.0625 C 16.003906 -51.0625 17.070312 -50.625 17.9375 -49.75 C 18.8125 -48.882812 19.25 -47.816406 19.25 -46.546875 Z M 30.9375 -46.546875 C 30.9375 -45.316406 30.492188 -44.253906 29.609375 -43.359375 C 28.722656 -42.472656 27.660156 -42.03125 26.421875 -42.03125 C 25.191406 -42.03125 24.128906 -42.472656 23.234375 -43.359375 C 22.347656 -44.253906 21.90625 -45.316406 21.90625 -46.546875 C 21.90625 -47.816406 22.347656 -48.882812 23.234375 -49.75 C 24.128906 -50.625 25.191406 -51.0625 26.421875 -51.0625 C 27.660156 -51.0625 28.722656 -50.625 29.609375 -49.75 C 30.492188 -48.882812 30.9375 -47.816406 30.9375 -46.546875 Z M 30.9375 -46.546875 "/></g></g><g style="fill:#e0feca;fill-opacity:1;"><g transform="translate(167.967551, 150.186655)"><path style="stroke:none" d="M 19.46875 -38.0625 C 22.550781 -38.0625 25.195312 -37.441406 27.40625 -36.203125 C 29.613281 -34.972656 31.316406 -33.332031 32.515625 -31.28125 C 33.710938 -29.238281 34.3125 -27.003906 34.3125 -24.578125 C 34.3125 -22.148438 33.710938 -19.910156 32.515625 -17.859375 C 31.316406 -15.816406 29.613281 -14.164062 27.40625 -12.90625 C 25.195312 -11.65625 22.550781 -11.03125 19.46875 -11.03125 L 14.25 -11.03125 L 14.25 0 L 3.8125 0 L 3.8125 -38.0625 Z M 19.078125 -19.84375 C 21.328125 -19.84375 22.859375 -20.332031 23.671875 -21.3125 C 24.492188 -22.289062 24.90625 -23.378906 24.90625 -24.578125 C 24.90625 -25.773438 24.492188 -26.851562 23.671875 -27.8125 C 22.859375 -28.769531 21.328125 -29.25 19.078125 -29.25 L 14.25 -29.25 L 14.25 -19.84375 Z M 19.078125 -19.84375 "/></g></g><g style="fill:#e0feca;fill-opacity:1;"><g transform="translate(203.039376, 150.186655)"><path style="stroke:none" d="M 26.96875 -38.0625 L 37.359375 -38.0625 L 37.359375 0 L 26.96875 0 L 26.96875 -14.625 L 14.1875 -14.625 L 14.1875 0 L 3.8125 0 L 3.8125 -38.0625 L 14.1875 -38.0625 L 14.1875 -23.4375 L 26.96875 -23.4375 Z M 26.96875 -38.0625 "/></g></g><g style="fill:#e0feca;fill-opacity:1;"><g transform="translate(243.331205, 150.186655)"><path style="stroke:none" d="M 28.875 0 L 26.53125 -6.75 L 14.46875 -6.75 L 12.125 0 L 0.546875 0 L 14.90625 -38.0625 L 26.046875 -38.0625 L 40.453125 0 Z M 17.5625 -15.546875 L 23.4375 -15.546875 L 20.5 -23.921875 Z M 17.5625 -15.546875 "/></g></g><g style="fill:#e0feca;fill-opacity:1;"><g transform="translate(283.459887, 150.186655)"><path style="stroke:none" d="M 3.8125 -38.0625 L 13.046875 -38.0625 L 26.265625 -17.890625 L 26.265625 -38.0625 L 36.703125 -38.0625 L 36.703125 0 L 27.453125 0 L 14.25 -20.234375 L 14.25 0 L 3.8125 0 Z M 3.8125 -38.0625 "/></g></g><g style="fill:#e0feca;fill-opacity:1;"><g transform="translate(323.099221, 150.186655)"><path style="stroke:none" d="M 14.1875 -8.8125 L 32.25 -8.8125 L 32.25 0 L 3.8125 0 L 3.8125 -38.0625 L 31.3125 -38.0625 L 31.3125 -29.25 L 14.1875 -29.25 L 14.1875 -23.4375 L 29.640625 -23.4375 L 29.640625 -14.625 L 14.1875 -14.625 Z M 14.1875 -8.8125 "/></g></g><g style="fill:#ffffff;fill-opacity:1;"><g transform="translate(96.800743, 201.186652)"><path style="stroke:none" d="M 14.953125 -27.84375 C 14.773438 -27.007812 15 -26.300781 15.625 -25.71875 C 16.257812 -25.132812 17.164062 -24.613281 18.34375 -24.15625 C 19.53125 -23.707031 20.835938 -23.25 22.265625 -22.78125 C 23.703125 -22.3125 25.132812 -21.75 26.5625 -21.09375 C 27.988281 -20.445312 29.289062 -19.660156 30.46875 -18.734375 C 31.65625 -17.804688 32.582031 -16.65625 33.25 -15.28125 C 33.914062 -13.90625 34.175781 -12.238281 34.03125 -10.28125 C 33.894531 -8.132812 33.378906 -6.34375 32.484375 -4.90625 C 31.597656 -3.476562 30.5 -2.347656 29.1875 -1.515625 C 27.882812 -0.679688 26.460938 -0.078125 24.921875 0.296875 C 23.390625 0.679688 21.859375 0.898438 20.328125 0.953125 C 18.804688 1.003906 17.414062 0.957031 16.15625 0.8125 C 14.195312 0.59375 12.3125 0.203125 10.5 -0.359375 C 8.6875 -0.921875 7.015625 -1.585938 5.484375 -2.359375 C 3.960938 -3.140625 2.675781 -3.910156 1.625 -4.671875 L 6.421875 -12.5625 C 7.285156 -11.582031 8.367188 -10.738281 9.671875 -10.03125 C 10.984375 -9.320312 12.351562 -8.773438 13.78125 -8.390625 C 15.21875 -8.015625 16.585938 -7.816406 17.890625 -7.796875 C 19.191406 -7.785156 20.285156 -7.96875 21.171875 -8.34375 C 22.066406 -8.726562 22.601562 -9.335938 22.78125 -10.171875 C 23 -11.148438 22.789062 -11.945312 22.15625 -12.5625 C 21.519531 -13.175781 20.617188 -13.707031 19.453125 -14.15625 C 18.296875 -14.613281 17.007812 -15.0625 15.59375 -15.5 C 14.1875 -15.9375 12.773438 -16.460938 11.359375 -17.078125 C 9.953125 -17.691406 8.675781 -18.476562 7.53125 -19.4375 C 6.382812 -20.394531 5.519531 -21.609375 4.9375 -23.078125 C 4.363281 -24.546875 4.203125 -26.367188 4.453125 -28.546875 C 4.640625 -29.960938 5.054688 -31.320312 5.703125 -32.625 C 6.359375 -33.925781 7.320312 -35.082031 8.59375 -36.09375 C 9.863281 -37.113281 11.507812 -37.882812 13.53125 -38.40625 C 15.5625 -38.9375 18.03125 -39.113281 20.9375 -38.9375 C 23.394531 -38.789062 25.445312 -38.460938 27.09375 -37.953125 C 28.75 -37.441406 30.046875 -36.914062 30.984375 -36.375 C 31.929688 -35.832031 32.53125 -35.453125 32.78125 -35.234375 L 29.09375 -27.078125 C 28.40625 -27.734375 27.503906 -28.320312 26.390625 -28.84375 C 25.285156 -29.375 24.117188 -29.78125 22.890625 -30.0625 C 21.660156 -30.351562 20.472656 -30.476562 19.328125 -30.4375 C 18.191406 -30.40625 17.222656 -30.191406 16.421875 -29.796875 C 15.617188 -29.398438 15.128906 -28.75 14.953125 -27.84375 Z M 14.953125 -27.84375 "/></g></g><g style="fill:#ffffff;fill-opacity:1;"><g transform="translate(131.655061, 201.186652)"><path style="stroke:none" d="M 28.875 0 L 26.53125 -6.75 L 14.46875 -6.75 L 12.125 0 L 0.546875 0 L 14.90625 -38.0625 L 26.046875 -38.0625 L 40.453125 0 Z M 17.5625 -15.546875 L 23.4375 -15.546875 L 20.5 -23.921875 Z M 17.5625 -15.546875 "/></g></g><g style="fill:#ffffff;fill-opacity:1;"><g transform="translate(171.783756, 201.186652)"><path style="stroke:none" d="M 26.421875 -38.0625 L 38.109375 -38.0625 L 24.515625 -13.921875 L 24.515625 0 L 14.140625 0 L 14.140625 -13.921875 L 0.546875 -38.0625 L 12.234375 -38.0625 L 19.296875 -23.8125 Z M 26.421875 -38.0625 "/></g></g><g style="fill:#ffffff;fill-opacity:1;"><g transform="translate(209.57433, 201.186652)"><path style="stroke:none" d="M 14.25 -38.0625 L 14.25 0 L 3.8125 0 L 3.8125 -38.0625 Z M 14.25 -38.0625 "/></g></g><g style="fill:#ffffff;fill-opacity:1;"><g transform="translate(226.756774, 201.186652)"><path style="stroke:none" d="M 38.390625 -38.0625 L 47.625 -38.0625 L 47.625 0 L 37.25 0 L 37.25 -20.609375 L 28 -9.03125 L 23.4375 -9.03125 L 14.1875 -20.609375 L 14.1875 0 L 3.8125 0 L 3.8125 -38.0625 L 13.046875 -38.0625 L 25.71875 -21.265625 Z M 38.390625 -38.0625 "/></g></g><g style="fill:#ffffff;fill-opacity:1;"><g transform="translate(0.765594, 252.186648)"><path style="stroke:none" d="M 26.921875 -38.0625 L 37.359375 -38.0625 L 37.359375 -15.546875 C 37.359375 -11.921875 36.59375 -8.894531 35.0625 -6.46875 C 33.539062 -4.039062 31.507812 -2.21875 28.96875 -1 C 26.4375 0.207031 23.628906 0.8125 20.546875 0.8125 C 17.503906 0.8125 14.710938 0.207031 12.171875 -1 C 9.640625 -2.21875 7.613281 -4.039062 6.09375 -6.46875 C 4.570312 -8.894531 3.8125 -11.921875 3.8125 -15.546875 L 3.8125 -38.0625 L 14.1875 -38.0625 C 14.1875 -38.0625 14.1875 -37.613281 14.1875 -36.71875 C 14.1875 -35.832031 14.1875 -34.65625 14.1875 -33.1875 C 14.1875 -31.726562 14.1875 -30.117188 14.1875 -28.359375 C 14.1875 -26.597656 14.1875 -24.851562 14.1875 -23.125 C 14.1875 -21.40625 14.1875 -19.847656 14.1875 -18.453125 C 14.1875 -17.054688 14.1875 -15.976562 14.1875 -15.21875 C 14.1875 -12.9375 14.800781 -11.210938 16.03125 -10.046875 C 17.269531 -8.890625 18.773438 -8.3125 20.546875 -8.3125 C 22.328125 -8.3125 23.832031 -8.890625 25.0625 -10.046875 C 26.300781 -11.210938 26.921875 -12.9375 26.921875 -15.21875 C 26.921875 -15.976562 26.921875 -17.054688 26.921875 -18.453125 C 26.921875 -19.847656 26.921875 -21.40625 26.921875 -23.125 C 26.921875 -24.851562 26.921875 -26.597656 26.921875 -28.359375 C 26.921875 -30.117188 26.921875 -31.726562 26.921875 -33.1875 C 26.921875 -34.65625 26.921875 -35.832031 26.921875 -36.71875 C 26.921875 -37.613281 26.921875 -38.0625 26.921875 -38.0625 Z M 26.921875 -38.0625 "/></g></g><g style="fill:#ffffff;fill-opacity:1;"><g transform="translate(41.057411, 252.186648)"><path style="stroke:none" d="M 26.421875 -38.0625 L 38.109375 -38.0625 L 24.515625 -13.921875 L 24.515625 0 L 14.140625 0 L 14.140625 -13.921875 L 0.546875 -38.0625 L 12.234375 -38.0625 L 19.296875 -23.8125 Z M 26.421875 -38.0625 "/></g></g><g style="fill:#ffffff;fill-opacity:1;"><g transform="translate(78.847986, 252.186648)"><path style="stroke:none" d="M 20.171875 -23.4375 L 38.4375 -23.4375 L 38.4375 -3.921875 C 37.175781 -2.941406 35.671875 -2.097656 33.921875 -1.390625 C 32.179688 -0.679688 30.378906 -0.140625 28.515625 0.234375 C 26.648438 0.617188 24.882812 0.8125 23.21875 0.8125 C 20.132812 0.8125 17.28125 0.320312 14.65625 -0.65625 C 12.03125 -1.632812 9.742188 -3.019531 7.796875 -4.8125 C 5.859375 -6.601562 4.34375 -8.703125 3.25 -11.109375 C 2.164062 -13.523438 1.625 -16.164062 1.625 -19.03125 C 1.625 -21.925781 2.195312 -24.578125 3.34375 -26.984375 C 4.488281 -29.398438 6.070312 -31.503906 8.09375 -33.296875 C 10.125 -35.097656 12.476562 -36.488281 15.15625 -37.46875 C 17.84375 -38.445312 20.726562 -38.9375 23.8125 -38.9375 C 26.28125 -38.9375 28.570312 -38.507812 30.6875 -37.65625 C 32.8125 -36.800781 34.816406 -35.628906 36.703125 -34.140625 L 31.59375 -26.921875 C 30.46875 -27.753906 29.242188 -28.421875 27.921875 -28.921875 C 26.597656 -29.429688 25.226562 -29.6875 23.8125 -29.6875 C 21.632812 -29.6875 19.628906 -29.207031 17.796875 -28.25 C 15.972656 -27.289062 14.507812 -26.007812 13.40625 -24.40625 C 12.300781 -22.8125 11.75 -21.019531 11.75 -19.03125 C 11.75 -17.070312 12.253906 -15.285156 13.265625 -13.671875 C 14.285156 -12.054688 15.65625 -10.769531 17.375 -9.8125 C 19.09375 -8.851562 21.039062 -8.375 23.21875 -8.375 C 24.15625 -8.375 25.054688 -8.4375 25.921875 -8.5625 C 26.796875 -8.6875 27.722656 -8.878906 28.703125 -9.140625 L 28.703125 -14.625 L 20.171875 -14.625 Z M 20.171875 -23.4375 "/></g></g><g style="fill:#ffffff;fill-opacity:1;"><g transform="translate(119.683558, 252.186648)"><path style="stroke:none" d="M 26.921875 -38.0625 L 37.359375 -38.0625 L 37.359375 -15.546875 C 37.359375 -11.921875 36.59375 -8.894531 35.0625 -6.46875 C 33.539062 -4.039062 31.507812 -2.21875 28.96875 -1 C 26.4375 0.207031 23.628906 0.8125 20.546875 0.8125 C 17.503906 0.8125 14.710938 0.207031 12.171875 -1 C 9.640625 -2.21875 7.613281 -4.039062 6.09375 -6.46875 C 4.570312 -8.894531 3.8125 -11.921875 3.8125 -15.546875 L 3.8125 -38.0625 L 14.1875 -38.0625 C 14.1875 -38.0625 14.1875 -37.613281 14.1875 -36.71875 C 14.1875 -35.832031 14.1875 -34.65625 14.1875 -33.1875 C 14.1875 -31.726562 14.1875 -30.117188 14.1875 -28.359375 C 14.1875 -26.597656 14.1875 -24.851562 14.1875 -23.125 C 14.1875 -21.40625 14.1875 -19.847656 14.1875 -18.453125 C 14.1875 -17.054688 14.1875 -15.976562 14.1875 -15.21875 C 14.1875 -12.9375 14.800781 -11.210938 16.03125 -10.046875 C 17.269531 -8.890625 18.773438 -8.3125 20.546875 -8.3125 C 22.328125 -8.3125 23.832031 -8.890625 25.0625 -10.046875 C 26.300781 -11.210938 26.921875 -12.9375 26.921875 -15.21875 C 26.921875 -15.976562 26.921875 -17.054688 26.921875 -18.453125 C 26.921875 -19.847656 26.921875 -21.40625 26.921875 -23.125 C 26.921875 -24.851562 26.921875 -26.597656 26.921875 -28.359375 C 26.921875 -30.117188 26.921875 -31.726562 26.921875 -33.1875 C 26.921875 -34.65625 26.921875 -35.832031 26.921875 -36.71875 C 26.921875 -37.613281 26.921875 -38.0625 26.921875 -38.0625 Z M 26.921875 -38.0625 "/></g></g><g style="fill:#ffffff;fill-opacity:1;"><g transform="translate(159.975375, 252.186648)"><path style="stroke:none" d="M 14.25 -8.8125 L 30.28125 -8.8125 L 30.28125 0 L 3.8125 0 L 3.8125 -38.0625 L 14.25 -38.0625 Z M 14.25 -8.8125 "/></g></g><g style="fill:#ffffff;fill-opacity:1;"><g transform="translate(190.479691, 252.186648)"><path style="stroke:none" d="M 28.875 0 L 26.53125 -6.75 L 14.46875 -6.75 L 12.125 0 L 0.546875 0 L 14.90625 -38.0625 L 26.046875 -38.0625 L 40.453125 0 Z M 17.5625 -15.546875 L 23.4375 -15.546875 L 20.5 -23.921875 Z M 17.5625 -15.546875 "/></g></g><g style="fill:#ffffff;fill-opacity:1;"><g transform="translate(230.608397, 252.186648)"><path style="stroke:none" d="M 38.390625 -38.0625 L 47.625 -38.0625 L 47.625 0 L 37.25 0 L 37.25 -20.609375 L 28 -9.03125 L 23.4375 -9.03125 L 14.1875 -20.609375 L 14.1875 0 L 3.8125 0 L 3.8125 -38.0625 L 13.046875 -38.0625 L 25.71875 -21.265625 Z M 38.390625 -38.0625 "/></g></g><g style="fill:#ffffff;fill-opacity:1;"><g transform="translate(281.177089, 252.186648)"><path style="stroke:none" d="M 28.875 0 L 26.53125 -6.75 L 14.46875 -6.75 L 12.125 0 L 0.546875 0 L 14.90625 -38.0625 L 26.046875 -38.0625 L 40.453125 0 Z M 17.5625 -15.546875 L 23.4375 -15.546875 L 20.5 -23.921875 Z M 17.5625 -15.546875 "/></g></g><g style="fill:#ffffff;fill-opacity:1;"><g transform="translate(321.305771, 252.186648)"><path style="stroke:none" d="M 14.953125 -27.84375 C 14.773438 -27.007812 15 -26.300781 15.625 -25.71875 C 16.257812 -25.132812 17.164062 -24.613281 18.34375 -24.15625 C 19.53125 -23.707031 20.835938 -23.25 22.265625 -22.78125 C 23.703125 -22.3125 25.132812 -21.75 26.5625 -21.09375 C 27.988281 -20.445312 29.289062 -19.660156 30.46875 -18.734375 C 31.65625 -17.804688 32.582031 -16.65625 33.25 -15.28125 C 33.914062 -13.90625 34.175781 -12.238281 34.03125 -10.28125 C 33.894531 -8.132812 33.378906 -6.34375 32.484375 -4.90625 C 31.597656 -3.476562 30.5 -2.347656 29.1875 -1.515625 C 27.882812 -0.679688 26.460938 -0.078125 24.921875 0.296875 C 23.390625 0.679688 21.859375 0.898438 20.328125 0.953125 C 18.804688 1.003906 17.414062 0.957031 16.15625 0.8125 C 14.195312 0.59375 12.3125 0.203125 10.5 -0.359375 C 8.6875 -0.921875 7.015625 -1.585938 5.484375 -2.359375 C 3.960938 -3.140625 2.675781 -3.910156 1.625 -4.671875 L 6.421875 -12.5625 C 7.285156 -11.582031 8.367188 -10.738281 9.671875 -10.03125 C 10.984375 -9.320312 12.351562 -8.773438 13.78125 -8.390625 C 15.21875 -8.015625 16.585938 -7.816406 17.890625 -7.796875 C 19.191406 -7.785156 20.285156 -7.96875 21.171875 -8.34375 C 22.066406 -8.726562 22.601562 -9.335938 22.78125 -10.171875 C 23 -11.148438 22.789062 -11.945312 22.15625 -12.5625 C 21.519531 -13.175781 20.617188 -13.707031 19.453125 -14.15625 C 18.296875 -14.613281 17.007812 -15.0625 15.59375 -15.5 C 14.1875 -15.9375 12.773438 -16.460938 11.359375 -17.078125 C 9.953125 -17.691406 8.675781 -18.476562 7.53125 -19.4375 C 6.382812 -20.394531 5.519531 -21.609375 4.9375 -23.078125 C 4.363281 -24.546875 4.203125 -26.367188 4.453125 -28.546875 C 4.640625 -29.960938 5.054688 -31.320312 5.703125 -32.625 C 6.359375 -33.925781 7.320312 -35.082031 8.59375 -36.09375 C 9.863281 -37.113281 11.507812 -37.882812 13.53125 -38.40625 C 15.5625 -38.9375 18.03125 -39.113281 20.9375 -38.9375 C 23.394531 -38.789062 25.445312 -38.460938 27.09375 -37.953125 C 28.75 -37.441406 30.046875 -36.914062 30.984375 -36.375 C 31.929688 -35.832031 32.53125 -35.453125 32.78125 -35.234375 L 29.09375 -27.078125 C 28.40625 -27.734375 27.503906 -28.320312 26.390625 -28.84375 C 25.285156 -29.375 24.117188 -29.78125 22.890625 -30.0625 C 21.660156 -30.351562 20.472656 -30.476562 19.328125 -30.4375 C 18.191406 -30.40625 17.222656 -30.191406 16.421875 -29.796875 C 15.617188 -29.398438 15.128906 -28.75 14.953125 -27.84375 Z M 14.953125 -27.84375 "/></g></g><g style="fill:#ffffff;fill-opacity:1;"><g transform="translate(356.160101, 252.186648)"><path style="stroke:none" d="M 14.25 -38.0625 L 14.25 0 L 3.8125 0 L 3.8125 -38.0625 Z M 14.25 -38.0625 "/></g></g></g></svg>